<?xml version="1.0" encoding="UTF-8" standalone="no"?>
<!-- Uploaded to: SVG Repo, www.svgrepo.com, Generator: SVG Repo Mixer Tools -->

<svg
   fill="#000000"
   height="800px"
   width="800px"
   version="1.1"
   id="Capa_1"
   viewBox="0 0 310.75 310.75"
   xml:space="preserve"
   sodipodi:docname="euro.svg"
   inkscape:version="1.4 (e7c3feb1, 2024-10-09)"
   xmlns:inkscape="http://www.inkscape.org/namespaces/inkscape"
   xmlns:sodipodi="http://sodipodi.sourceforge.net/DTD/sodipodi-0.dtd"
   xmlns="http://www.w3.org/2000/svg"
   xmlns:svg="http://www.w3.org/2000/svg"><defs
   id="defs1" /><sodipodi:namedview
   id="namedview1"
   pagecolor="#ffffff"
   bordercolor="#999999"
   borderopacity="1"
   inkscape:showpageshadow="2"
   inkscape:pageopacity="0"
   inkscape:pagecheckerboard="0"
   inkscape:deskcolor="#d1d1d1"
   inkscape:zoom="0.36769553"
   inkscape:cx="240.68827"
   inkscape:cy="378.03016"
   inkscape:window-width="1280"
   inkscape:window-height="1059"
   inkscape:window-x="0"
   inkscape:window-y="44"
   inkscape:window-maximized="0"
   inkscape:current-layer="Capa_1" />
<path
   d="M183.815,265.726c-32.444,0-60.868-21.837-76.306-54.325h102.101v-45.023H95.643c-0.284-3.642-0.437-7.29-0.437-11.016  c0-3.691,0.152-7.384,0.437-10.977h113.969V99.353H107.51c15.438-32.485,43.861-54.315,76.306-54.315  c31.01,0,60.21,20.759,76.2,54.152l40.626-19.418C277.091,30.554,232.329,0,183.815,0c-36.47,0-70.51,16.665-95.851,46.966  C75.219,62.209,65.481,79.995,59.079,99.353H10.108v45.031h40.39c-0.217,3.617-0.329,7.311-0.329,10.977  c0,3.704,0.112,7.351,0.329,11.016h-40.39V211.4h48.971c6.402,19.356,16.14,37.122,28.886,52.351  c25.341,30.303,59.381,46.999,95.851,46.999c48.515,0,93.275-30.55,116.826-79.767l-40.626-19.454  C244.025,244.965,214.825,265.726,183.815,265.726z"
   id="path1" />
<path
   style="fill:#d4aa00;stroke-width:2.71964"
   d="M 438.2288,796.6596 C 317.67213,780.07501 214.22809,694.90837 164.29237,571.12471 L 153.8696,545.28811 91.212921,544.55808 28.556235,543.82805 V 486.7657 429.70335 h 51.51001 51.510005 V 399.7873 369.87124 H 80.066245 28.556235 v -55.75265 -55.75265 h 62.187347 62.187348 l 6.15978,-16.99776 c 7.02921,-19.39696 26.9581,-60.05204 37.53069,-76.56291 24.1809,-37.76251 61.86889,-78.464179 95.74854,-103.404961 20.11347,-14.806682 60.06584,-35.479936 84.87354,-43.917577 60.06554,-20.4296078 135.14611,-20.1762714 193.47217,0.652813 67.27555,24.02509 129.12006,72.907934 170.49179,134.759325 16.02478,23.95732 31.08776,50.8541 29.31385,52.34344 -0.81293,0.68253 -15.83373,7.82944 -74.68775,35.53653 l -24.87145,11.7089 -13.66489,-22.21559 c -17.45332,-28.37456 -37.97125,-52.23043 -60.3359,-70.15151 -18.69655,-14.9818 -58.38997,-35.1028 -78.8696,-39.97982 -68.1042,-16.21834 -136.93795,5.32937 -190.24713,59.55497 -19.1642,19.49361 -47.62868,60.29342 -50.96482,73.05081 l -1.47053,5.62334 h 130.85999 130.85998 v 55.72902 55.72904 l -146.18073,0.70352 -146.18073,0.70354 v 28.55624 28.55623 l 146.18073,0.70355 146.18073,0.70351 v 57.08887 57.08883 H 406.5864 c -71.79853,0 -130.54279,0.80029 -130.54279,1.77838 0,4.82475 21.08745,38.51991 35.2995,56.40427 28.08302,35.33954 67.54613,62.73136 108.8415,75.54819 16.98829,5.27265 26.07902,6.29747 54.39283,6.13189 29.12945,-0.17033 37.1098,-1.22873 55.75265,-7.39429 48.18217,-15.93482 94.80341,-54.51647 124.70766,-103.20256 l 15.92203,-25.92208 33.03152,15.61763 c 18.16734,8.58971 40.75663,19.51984 50.19838,24.2892 l 17.16686,8.67157 -11.29208,20.95272 C 726.45559,679.16524 669.72071,734.7524 608.20177,765.59379 556.02496,791.75168 490.11682,803.79765 438.2288,796.6596 Z"
   id="path2"
   transform="scale(0.3884375)" /></svg>
